<svg width="450" height="225" viewBox="0 0 450 225" fill="none" xmlns="http://www.w3.org/2000/svg">
<rect width="450" height="225" fill="white"/>
<path d="M27.8841 162V132.518H32.874V158.155H47.9812V162H27.8841ZM61.7608 162.458C57.9764 162.458 55.0465 161.527 52.9712 159.665C50.8958 157.804 49.8582 154.95 49.8582 151.105C49.8582 147.625 50.7432 144.879 52.5134 142.864C54.2835 140.85 56.9692 139.843 60.5705 139.843C63.8666 139.843 66.3387 140.713 67.9868 142.452C69.6654 144.161 70.5046 146.374 70.5046 149.09V153.119H54.6192C54.8634 155.225 55.6264 156.674 56.9082 157.468C58.19 158.261 60.1433 158.658 62.7679 158.658C63.8666 158.658 64.9959 158.551 66.1556 158.338C67.3153 158.124 68.3225 157.849 69.177 157.514V161.176C68.2004 161.603 67.0712 161.924 65.7894 162.137C64.5381 162.351 63.1952 162.458 61.7608 162.458ZM54.6192 149.868H66.1098V148.358C66.1098 146.862 65.6978 145.703 64.8738 144.879C64.0498 144.024 62.6611 143.597 60.7079 143.597C58.3884 143.597 56.7861 144.1 55.901 145.107C55.0465 146.115 54.6192 147.702 54.6192 149.868ZM84.335 162.458C82.3817 162.458 80.6574 162.122 79.1619 161.451C77.6665 160.779 76.5067 159.665 75.6827 158.109C74.8587 156.552 74.4467 154.462 74.4467 151.837C74.4467 149.243 74.8892 147.061 75.7743 145.291C76.6593 143.49 77.8801 142.132 79.4366 141.216C81.0236 140.301 82.809 139.843 84.7928 139.843C86.1051 139.843 87.2649 139.995 88.272 140.301C89.3097 140.606 90.3016 141.079 91.2477 141.72V131.145H96.2376V162H91.9801L91.6597 159.848C90.6831 160.733 89.6149 161.39 88.4551 161.817C87.2954 162.244 85.922 162.458 84.335 162.458ZM85.6626 158.704C87.8905 158.704 89.7522 157.941 91.2477 156.415V145.565C89.8133 144.283 88.0126 143.642 85.8457 143.642C83.7399 143.642 82.1529 144.344 81.0847 145.748C80.0165 147.152 79.4824 149.197 79.4824 151.883C79.4824 154.477 79.9707 156.262 80.9473 157.239C81.9545 158.216 83.5262 158.704 85.6626 158.704ZM112.547 162.458C108.763 162.458 105.833 161.527 103.758 159.665C101.682 157.804 100.645 154.95 100.645 151.105C100.645 147.625 101.53 144.879 103.3 142.864C105.07 140.85 107.756 139.843 111.357 139.843C114.653 139.843 117.125 140.713 118.773 142.452C120.452 144.161 121.291 146.374 121.291 149.09V153.119H105.406C105.65 155.225 106.413 156.674 107.695 157.468C108.976 158.261 110.93 158.658 113.554 158.658C114.653 158.658 115.782 158.551 116.942 158.338C118.102 158.124 119.109 157.849 119.963 157.514V161.176C118.987 161.603 117.858 161.924 116.576 162.137C115.324 162.351 113.982 162.458 112.547 162.458ZM105.406 149.868H116.896V148.358C116.896 146.862 116.484 145.703 115.66 144.879C114.836 144.024 113.448 143.597 111.494 143.597C109.175 143.597 107.573 144.1 106.687 145.107C105.833 146.115 105.406 147.702 105.406 149.868ZM126.149 162V140.301H130.727L130.956 142.59C131.932 141.827 133.092 141.186 134.435 140.667C135.808 140.117 137.319 139.843 138.967 139.843C141.775 139.843 143.82 140.499 145.101 141.811C146.383 143.124 147.024 145.168 147.024 147.946V162H142.08V148.175C142.08 146.496 141.729 145.321 141.027 144.65C140.356 143.978 139.074 143.642 137.182 143.642C136.052 143.642 134.938 143.871 133.84 144.329C132.771 144.787 131.871 145.382 131.139 146.115V162H126.149ZM158.72 162.458C157.346 162.458 156.064 162.214 154.874 161.725C153.714 161.237 152.784 160.505 152.082 159.528C151.38 158.521 151.029 157.285 151.029 155.82C151.029 153.744 151.731 152.081 153.135 150.83C154.569 149.548 156.766 148.907 159.727 148.907H166.685V147.946C166.685 146.908 166.517 146.084 166.182 145.474C165.876 144.863 165.297 144.421 164.442 144.146C163.618 143.871 162.397 143.734 160.78 143.734C158.216 143.734 155.82 144.116 153.592 144.879V141.17C154.569 140.774 155.759 140.453 157.163 140.209C158.567 139.965 160.078 139.843 161.695 139.843C164.869 139.843 167.28 140.484 168.928 141.766C170.607 143.047 171.446 145.138 171.446 148.037V162H167.189L166.868 159.803C165.983 160.657 164.885 161.313 163.572 161.771C162.29 162.229 160.673 162.458 158.72 162.458ZM160.047 158.887C161.543 158.887 162.84 158.643 163.938 158.155C165.068 157.636 165.983 156.949 166.685 156.094V152.295H159.818C158.353 152.295 157.285 152.585 156.614 153.165C155.973 153.714 155.652 154.568 155.652 155.728C155.652 156.857 156.034 157.666 156.797 158.155C157.56 158.643 158.643 158.887 160.047 158.887ZM185.953 162.458C183.999 162.458 182.275 162.122 180.779 161.451C179.284 160.779 178.124 159.665 177.3 158.109C176.476 156.552 176.064 154.462 176.064 151.837C176.064 149.243 176.507 147.061 177.392 145.291C178.277 143.49 179.498 142.132 181.054 141.216C182.641 140.301 184.427 139.843 186.41 139.843C187.723 139.843 188.882 139.995 189.89 140.301C190.927 140.606 191.919 141.079 192.865 141.72V131.145H197.855V162H193.598L193.277 159.848C192.301 160.733 191.232 161.39 190.073 161.817C188.913 162.244 187.54 162.458 185.953 162.458ZM187.28 158.704C189.508 158.704 191.37 157.941 192.865 156.415V145.565C191.431 144.283 189.63 143.642 187.463 143.642C185.357 143.642 183.77 144.344 182.702 145.748C181.634 147.152 181.1 149.197 181.1 151.883C181.1 154.477 181.588 156.262 182.565 157.239C183.572 158.216 185.144 158.704 187.28 158.704ZM203.625 162V140.301H208.203L208.432 142.59C209.5 141.735 210.675 141.064 211.957 140.575C213.238 140.087 214.612 139.843 216.077 139.843C217.633 139.843 218.839 140.102 219.693 140.621C220.578 141.109 221.25 141.796 221.708 142.681C222.715 141.857 223.875 141.186 225.187 140.667C226.499 140.117 228.071 139.843 229.902 139.843C232.405 139.843 234.251 140.484 235.441 141.766C236.632 143.047 237.227 145.016 237.227 147.671V162H232.328V148.175C232.328 146.496 231.977 145.321 231.276 144.65C230.574 143.978 229.429 143.642 227.842 143.642C226.804 143.642 225.813 143.826 224.866 144.192C223.951 144.558 223.157 145.107 222.486 145.84C222.577 146.176 222.638 146.527 222.669 146.893C222.7 147.259 222.715 147.656 222.715 148.083V162H218.091V148.22C218.091 146.633 217.816 145.474 217.267 144.741C216.718 144.009 215.68 143.642 214.154 143.642C213.086 143.642 212.063 143.902 211.087 144.421C210.141 144.909 209.286 145.504 208.523 146.206V162H203.625ZM244.663 135.768V131.648H250.111V135.768H244.663ZM245.075 162V144.1H241.779L242.237 140.301H250.065V162H245.075ZM255.887 162V140.301H260.464L260.693 142.59C261.67 141.827 262.83 141.186 264.173 140.667C265.546 140.117 267.057 139.843 268.705 139.843C271.513 139.843 273.557 140.499 274.839 141.811C276.121 143.124 276.762 145.168 276.762 147.946V162H271.818V148.175C271.818 146.496 271.467 145.321 270.765 144.65C270.093 143.978 268.812 143.642 266.919 143.642C265.79 143.642 264.676 143.871 263.577 144.329C262.509 144.787 261.609 145.382 260.876 146.115V162H255.887ZM284.184 135.768V131.648H289.632V135.768H284.184ZM284.596 162V144.1H281.3L281.758 140.301H289.586V162H284.596ZM302.64 162.458C301.145 162.458 299.71 162.351 298.337 162.137C296.994 161.924 295.88 161.664 294.995 161.359V157.147C296.033 157.544 297.177 157.849 298.428 158.063C299.68 158.277 300.87 158.383 301.999 158.383C303.708 158.383 304.929 158.231 305.662 157.926C306.394 157.62 306.76 157.025 306.76 156.14C306.76 155.499 306.531 154.996 306.074 154.63C305.646 154.263 304.99 153.928 304.105 153.622C303.251 153.317 302.152 152.951 300.809 152.524C299.527 152.096 298.413 151.639 297.467 151.15C296.521 150.631 295.788 149.975 295.27 149.182C294.751 148.388 294.491 147.351 294.491 146.069C294.491 144.085 295.209 142.559 296.643 141.491C298.077 140.392 300.382 139.843 303.556 139.843C304.807 139.843 305.997 139.934 307.126 140.117C308.256 140.301 309.217 140.529 310.011 140.804V144.97C309.156 144.634 308.21 144.375 307.172 144.192C306.165 144.009 305.219 143.917 304.334 143.917C302.747 143.917 301.541 144.055 300.717 144.329C299.924 144.604 299.527 145.153 299.527 145.977C299.527 146.832 299.939 147.442 300.763 147.808C301.618 148.144 302.976 148.617 304.838 149.228C306.547 149.746 307.905 150.296 308.912 150.876C309.919 151.455 310.636 152.157 311.064 152.981C311.521 153.775 311.75 154.813 311.75 156.094C311.75 158.231 310.972 159.833 309.415 160.901C307.859 161.939 305.601 162.458 302.64 162.458ZM324.258 162.458C321.938 162.458 320.199 161.847 319.039 160.627C317.91 159.375 317.345 157.681 317.345 155.545V144.192H314.141V140.301H317.345V135.311L322.289 133.8V140.301H328.058L327.737 144.192H322.289V155.27C322.289 156.522 322.579 157.407 323.159 157.926C323.739 158.414 324.685 158.658 325.998 158.658C326.822 158.658 327.691 158.506 328.607 158.2V161.725C327.417 162.214 325.967 162.458 324.258 162.458ZM332.424 162V140.301H337.002L337.276 142.818C338.314 142.147 339.55 141.537 340.985 140.987C342.419 140.438 343.838 140.056 345.242 139.843V143.642C344.387 143.795 343.457 144.024 342.45 144.329C341.473 144.604 340.542 144.924 339.657 145.291C338.772 145.626 338.024 145.977 337.414 146.343V162H332.424ZM354.265 162.458C352.892 162.458 351.61 162.214 350.42 161.725C349.26 161.237 348.329 160.505 347.627 159.528C346.925 158.521 346.574 157.285 346.574 155.82C346.574 153.744 347.276 152.081 348.68 150.83C350.115 149.548 352.312 148.907 355.272 148.907H362.231V147.946C362.231 146.908 362.063 146.084 361.727 145.474C361.422 144.863 360.842 144.421 359.988 144.146C359.164 143.871 357.943 143.734 356.325 143.734C353.762 143.734 351.366 144.116 349.138 144.879V141.17C350.115 140.774 351.305 140.453 352.709 140.209C354.113 139.965 355.623 139.843 357.241 139.843C360.415 139.843 362.826 140.484 364.474 141.766C366.153 143.047 366.992 145.138 366.992 148.037V162H362.734L362.414 159.803C361.529 160.657 360.43 161.313 359.118 161.771C357.836 162.229 356.218 162.458 354.265 162.458ZM355.593 158.887C357.088 158.887 358.385 158.643 359.484 158.155C360.613 157.636 361.529 156.949 362.231 156.094V152.295H355.364C353.899 152.295 352.831 152.585 352.159 153.165C351.518 153.714 351.198 154.568 351.198 155.728C351.198 156.857 351.58 157.666 352.343 158.155C353.105 158.643 354.189 158.887 355.593 158.887ZM380.812 162.458C378.492 162.458 376.752 161.847 375.593 160.627C374.463 159.375 373.899 157.681 373.899 155.545V144.192H370.694V140.301H373.899V135.311L378.843 133.8V140.301H384.611L384.291 144.192H378.843V155.27C378.843 156.522 379.133 157.407 379.713 157.926C380.293 158.414 381.239 158.658 382.551 158.658C383.375 158.658 384.245 158.506 385.161 158.2V161.725C383.97 162.214 382.521 162.458 380.812 162.458ZM390.809 135.768V131.648H396.256V135.768H390.809ZM391.221 162V144.1H387.924L388.382 140.301H396.211V162H391.221ZM413.019 162.458C409.234 162.458 406.304 161.527 404.229 159.665C402.154 157.804 401.116 154.95 401.116 151.105C401.116 147.625 402.001 144.879 403.771 142.864C405.541 140.85 408.227 139.843 411.828 139.843C415.125 139.843 417.597 140.713 419.245 142.452C420.923 144.161 421.763 146.374 421.763 149.09V153.119H405.877C406.121 155.225 406.884 156.674 408.166 157.468C409.448 158.261 411.401 158.658 414.026 158.658C415.125 158.658 416.254 158.551 417.414 158.338C418.573 158.124 419.58 157.849 420.435 157.514V161.176C419.458 161.603 418.329 161.924 417.047 162.137C415.796 162.351 414.453 162.458 413.019 162.458ZM405.877 149.868H417.368V148.358C417.368 146.862 416.956 145.703 416.132 144.879C415.308 144.024 413.919 143.597 411.966 143.597C409.646 143.597 408.044 144.1 407.159 145.107C406.304 146.115 405.877 147.702 405.877 149.868Z" fill="#172554"/>
<mask id="mask0_44_2" style="mask-type:luminance" maskUnits="userSpaceOnUse" x="169" y="38" width="111" height="66">
<path d="M280 38H169V103.125H280V38Z" fill="white"/>
</mask>
<g mask="url(#mask0_44_2)">
<path d="M272.724 45.3486C268.43 41.0563 262.716 38.4812 256.656 38.108C250.597 37.7347 244.61 39.589 239.822 43.3219C235.45 39.9252 230.072 38.0809 224.535 38.0798C218.999 38.0787 213.62 39.921 209.246 43.316C204.259 39.4023 197.965 37.5399 191.651 38.1089C185.337 38.678 179.478 41.6357 175.27 46.3781C171.062 51.1205 168.824 57.29 169.011 63.6272C169.198 69.9643 171.796 75.9913 176.276 80.4772L191.575 95.7787C191.587 95.7902 191.599 95.8013 191.613 95.8131C191.626 95.825 191.63 95.8305 191.638 95.8391C191.654 95.855 191.671 95.8694 191.687 95.8853C191.93 96.126 192.177 96.3605 192.428 96.5889C192.556 96.7071 192.687 96.8215 192.818 96.9367C192.924 97.0292 193.031 97.1211 193.139 97.2118C197.5 100.907 203 102.989 208.715 103.108C214.43 103.227 220.012 101.375 224.523 97.8639C229.311 101.597 235.298 103.451 241.357 103.078C247.417 102.705 253.131 100.129 257.425 95.8372L272.724 80.5379C277.384 75.8679 280 69.5402 280 62.9432C280 56.3462 277.383 50.0186 272.724 45.3486ZM224.53 44.5606C228.168 44.5582 231.724 45.6351 234.749 47.6549C237.775 49.6747 240.133 52.5465 241.525 55.907C242.917 59.2675 243.281 62.9655 242.571 66.533C241.861 70.1004 240.108 73.377 237.535 75.9479L224.53 88.9521L211.525 75.9479C208.952 73.377 207.2 70.1004 206.489 66.5329C205.779 62.9654 206.143 59.2673 207.535 55.9069C208.928 52.5464 211.286 49.6745 214.311 47.6548C217.336 45.635 220.893 44.5582 224.53 44.5606ZM190.839 78.2431C190.832 75.8268 191.305 73.4335 192.23 71.2012C193.154 68.969 194.513 66.9424 196.226 65.2386L199.687 61.7773C199.52 65.2371 200.078 68.6936 201.326 71.9246C202.575 75.1555 204.485 78.0894 206.936 80.5379L219.674 93.2765C216.926 95.201 213.703 96.3345 210.356 96.553C207.008 96.7715 203.665 96.0672 200.69 94.5163C197.716 92.9651 195.224 90.6277 193.487 87.7578C191.75 84.8883 190.833 81.5966 190.838 78.242L190.839 78.2431ZM180.865 75.8868C177.61 72.6324 175.694 68.2755 175.495 63.6768C175.296 59.0782 176.829 54.5721 179.791 51.0488C182.753 47.5254 186.929 45.2411 191.493 44.6469C196.058 44.0527 200.679 45.192 204.444 47.8397L191.636 60.6483C189.318 62.9535 187.481 65.6955 186.23 68.7157C184.979 71.7359 184.339 74.9741 184.348 78.2431C184.348 78.629 184.357 79.0133 184.375 79.3966L180.865 75.8868ZM239.831 96.6337C236.073 96.6426 232.405 95.4917 229.325 93.338L242.127 80.5379C244.577 78.0894 246.487 75.1555 247.736 71.9245C248.984 68.6936 249.542 65.2371 249.375 61.7773L252.836 65.2386C255.409 67.8107 257.16 71.0878 257.869 74.6553C258.579 78.2227 258.215 81.9206 256.822 85.2812C255.43 88.6417 253.073 91.5139 250.049 93.5346C247.024 95.5554 243.468 96.6337 239.831 96.6337ZM268.135 75.9479L264.686 79.3966C264.703 79.0137 264.712 78.6293 264.713 78.2431C264.722 74.9741 264.082 71.7358 262.831 68.7157C261.58 65.6955 259.743 62.9535 257.425 60.6483L244.625 47.8482C248.397 45.2234 253.015 44.1058 257.57 44.7156C262.125 45.3254 266.286 47.6183 269.235 51.1429C272.184 54.6674 273.706 59.1682 273.503 63.7592C273.299 68.3501 271.384 72.6984 268.135 75.9479Z" fill="#172554"/>
</g>
</svg>
