<svg width="404" height="237" viewBox="0 0 404 237" fill="none" xmlns="http://www.w3.org/2000/svg">
<mask id="mask0_47_3" style="mask-type:luminance" maskUnits="userSpaceOnUse" x="0" y="0" width="404" height="237">
<path d="M403.948 0H0V237H403.948V0Z" fill="white"/>
</mask>
<g mask="url(#mask0_47_3)">
<path d="M377.469 26.7444C361.845 11.124 341.049 1.7528 318.997 0.394442C296.946 -0.963919 275.158 5.78421 257.734 19.3689C241.824 7.00782 222.25 0.295922 202.102 0.292017C181.954 0.288113 162.378 6.99244 146.463 19.3473C128.312 5.1047 105.409 -1.67297 82.4303 0.397999C59.4516 2.46897 38.1297 13.2324 22.8177 30.4909C7.50564 47.7494 -0.641786 70.2014 0.0387045 93.2633C0.719195 116.325 10.1763 138.258 26.4793 154.583L82.1561 210.268C82.1992 210.31 82.2423 210.35 82.2908 210.394C82.3394 210.437 82.3528 210.457 82.3838 210.488C82.4418 210.546 82.5038 210.598 82.5617 210.656C83.4467 211.532 84.345 212.385 85.2569 213.217C85.7259 213.647 86.2003 214.063 86.6773 214.482C87.0645 214.819 87.4536 215.153 87.8444 215.484C103.716 228.931 123.732 236.509 144.529 236.94C165.328 237.373 185.641 230.635 202.058 217.857C219.481 231.441 241.269 238.189 263.32 236.831C285.373 235.473 306.168 226.101 321.792 210.481L377.47 154.804C394.427 137.81 403.949 114.782 403.949 90.7741C403.949 66.7665 394.426 43.7393 377.469 26.7444ZM202.085 23.8767C215.322 23.8682 228.265 27.7872 239.273 35.1375C250.283 42.4878 258.864 52.939 263.931 65.1683C268.998 77.3977 270.322 90.8554 267.738 103.838C265.153 116.821 258.775 128.745 249.41 138.101L202.085 185.425L154.758 138.101C145.393 128.745 139.015 116.82 136.43 103.838C133.845 90.8548 135.17 77.3971 140.237 65.1678C145.304 52.9383 153.886 42.4871 164.894 35.1369C175.904 27.7868 188.847 23.8679 202.085 23.8767ZM79.4757 146.453C79.4515 137.66 81.1719 128.95 84.5369 120.827C87.9019 112.703 92.8448 105.328 99.0795 99.1276L111.676 86.5314C111.066 99.1219 113.098 111.701 117.641 123.459C122.184 135.217 129.137 145.894 138.054 154.804L184.412 201.162C174.413 208.166 162.683 212.291 150.5 213.086C138.319 213.881 126.152 211.318 115.327 205.674C104.502 200.029 95.4342 191.523 89.1118 181.079C82.7896 170.636 79.4555 158.657 79.473 146.449L79.4757 146.453ZM43.1803 137.878C31.3341 126.035 24.3603 110.179 23.6365 93.444C22.9127 76.7086 28.4914 60.3102 39.2707 47.4883C50.0501 34.6662 65.2462 26.353 81.857 24.1908C98.468 22.0285 115.286 26.1746 128.988 35.8098L82.3757 82.4225C73.9409 90.8116 67.2537 100.79 62.7013 111.781C58.1491 122.772 55.8219 134.557 55.8546 146.453C55.8546 147.857 55.8874 149.256 55.953 150.651L43.1803 137.878ZM257.765 213.38C244.091 213.412 230.74 209.224 219.535 201.386L266.121 154.804C275.038 145.894 281.99 135.217 286.533 123.459C291.076 111.701 293.108 99.1219 292.499 86.5314L305.095 99.1276C314.456 108.488 320.828 120.414 323.41 133.397C325.994 146.379 324.668 159.836 319.601 172.066C314.535 184.296 305.956 194.748 294.95 202.102C283.943 209.456 271.003 213.38 257.765 213.38ZM360.768 138.101L348.217 150.651C348.281 149.258 348.313 147.859 348.316 146.453C348.348 134.557 346.021 122.772 341.469 111.781C336.916 100.79 330.228 90.8116 321.793 82.4225L275.213 35.8408C288.94 26.2886 305.746 22.2218 322.322 24.4409C338.897 26.6599 354.042 35.0042 364.773 47.8307C375.504 60.6572 381.044 77.0364 380.303 93.7436C379.562 110.451 372.593 126.275 360.768 138.101Z" fill="white"/>
</g>
</svg>
